HIERARCHY
ROOT Hips
{
    OFFSET   0.000000   0.000000   0.000000
    CHANNELS 6 Xposition Yposition Zposition Zrotation Xrotation Yrotation
    JOINT Chest
    {
        OFFSET   0.000000   8.007240   0.000000
        CHANNELS 3 Zrotation Xrotation Yrotation
        JOINT Chest2
        {
            OFFSET   0.000000  22.077100   0.000000
            CHANNELS 3 Zrotation Xrotation Yrotation
            JOINT Neck
            {
                OFFSET   0.000000  23.254800   0.000000
                CHANNELS 3 Zrotation Xrotation Yrotation
                JOINT Head
                {
                    OFFSET   0.000000  14.370000   1.956600
                    CHANNELS 3 Zrotation Xrotation Yrotation
                    End Site
                    {
                        OFFSET   0.000000  19.566000   0.000000
                    }
                }
            }
            JOINT LeftCollar
            {
                OFFSET   3.911900  19.017000  -0.467064
                CHANNELS 3 Zrotation Xrotation Yrotation
                JOINT LeftShoulder
                {
                    OFFSET  10.383700   0.000000   0.000000
                    CHANNELS 3 Zrotation Xrotation Yrotation
                    JOINT LeftElbow
                    {
                        OFFSET  26.662100   0.001476   0.000517
                        CHANNELS 3 Zrotation Xrotation Yrotation
                        JOINT LeftWrist
                        {
                            OFFSET  28.869000  -0.000025  -0.000106
                            CHANNELS 3 Zrotation Xrotation Yrotation
                            JOINT LeftFinger0
                            {
                                OFFSET   2.044660  -2.323460   3.252850
                                CHANNELS 3 Zrotation Xrotation Yrotation
                                JOINT LeftFinger01
                                {
                                    OFFSET   3.088130   0.000000   0.000000
                                    CHANNELS 3 Zrotation Xrotation Yrotation
                                    JOINT LeftFinger02
                                    {
                                        OFFSET   2.639460   0.000000   0.000000
                                        CHANNELS 3 Zrotation Xrotation Yrotation
                                        End Site
                                        {
                                            OFFSET   2.582190   0.000000   0.000000
                                        }
                                    }
                                }
                            }
                            JOINT LeftFinger1
                            {
                                OFFSET   8.364480   0.000000   3.252850
                                CHANNELS 3 Zrotation Xrotation Yrotation
                                JOINT LeftFinger11
                                {
                                    OFFSET   4.646930   0.000000   0.000000
                                    CHANNELS 3 Zrotation Xrotation Yrotation
                                    JOINT LeftFinger12
                                    {
                                        OFFSET   2.323460   0.000000   0.000000
                                        CHANNELS 3 Zrotation Xrotation Yrotation
                                        End Site
                                        {
                                            OFFSET   2.273050   0.000000   0.000000
                                        }
                                    }
                                }
                            }
                            JOINT LeftFinger2
                            {
                                OFFSET   8.364490   0.000015   1.078090
                                CHANNELS 3 Zrotation Xrotation Yrotation
                                JOINT LeftFinger21
                                {
                                    OFFSET   5.111620   0.000000   0.000000
                                    CHANNELS 3 Zrotation Xrotation Yrotation
                                    JOINT LeftFinger22
                                    {
                                        OFFSET   2.788160   0.000016   0.000000
                                        CHANNELS 3 Zrotation Xrotation Yrotation
                                        End Site
                                        {
                                            OFFSET   2.727660   0.000000   0.000000
                                        }
                                    }
                                }
                            }
                            JOINT LeftFinger3
                            {
                                OFFSET   7.899780   0.000017  -1.078090
                                CHANNELS 3 Zrotation Xrotation Yrotation
                                JOINT LeftFinger31
                                {
                                    OFFSET   4.646930   0.000000   0.000000
                                    CHANNELS 3 Zrotation Xrotation Yrotation
                                    JOINT LeftFinger32
                                    {
                                        OFFSET   2.323470   0.000000   0.000000
                                        CHANNELS 3 Zrotation Xrotation Yrotation
                                        End Site
                                        {
                                            OFFSET   2.273050   0.000000   0.000000
                                        }
                                    }
                                }
                            }
                            JOINT LeftFinger4
                            {
                                OFFSET   7.435090   0.000000  -3.252850
                                CHANNELS 3 Zrotation Xrotation Yrotation
                                JOINT LeftFinger41
                                {
                                    OFFSET   3.717550   0.000000   0.000000
                                    CHANNELS 3 Zrotation Xrotation Yrotation
                                    JOINT LeftFinger42
                                    {
                                        OFFSET   1.858770   0.000000   0.000000
                                        CHANNELS 3 Zrotation Xrotation Yrotation
                                        End Site
                                        {
                                            OFFSET   1.818440   0.000000   0.000000
                                        }
                                    }
                                }
                            }
                        }
                    }
                }
            }
            JOINT RightCollar
            {
                OFFSET  -3.911900  19.017000  -0.467063
                CHANNELS 3 Zrotation Xrotation Yrotation
                JOINT RightShoulder
                {
                    OFFSET -10.383700   0.000019   0.000000
                    CHANNELS 3 Zrotation Xrotation Yrotation
                    JOINT RightElbow
                    {
                        OFFSET -26.662100   0.001175   0.000102
                        CHANNELS 3 Zrotation Xrotation Yrotation
                        JOINT RightWrist
                        {
                            OFFSET -28.869000   0.000016  -0.000079
                            CHANNELS 3 Zrotation Xrotation Yrotation
                            JOINT RightFinger0
                            {
                                OFFSET  -2.044660  -2.323490   3.252850
                                CHANNELS 3 Zrotation Xrotation Yrotation
                                JOINT RightFinger01
                                {
                                    OFFSET  -3.088140   0.000000   0.000000
                                    CHANNELS 3 Zrotation Xrotation Yrotation
                                    JOINT RightFinger02
                                    {
                                        OFFSET  -2.639460   0.000000   0.000000
                                        CHANNELS 3 Zrotation Xrotation Yrotation
                                        End Site
                                        {
                                            OFFSET  -2.582190   0.000000   0.000000
                                        }
                                    }
                                }
                            }
                            JOINT RightFinger1
                            {
                                OFFSET  -8.364480   0.000000   3.252850
                                CHANNELS 3 Zrotation Xrotation Yrotation
                                JOINT RightFinger11
                                {
                                    OFFSET  -4.646930   0.000000   0.000000
                                    CHANNELS 3 Zrotation Xrotation Yrotation
                                    JOINT RightFinger12
                                    {
                                        OFFSET  -2.323470   0.000000   0.000000
                                        CHANNELS 3 Zrotation Xrotation Yrotation
                                        End Site
                                        {
                                            OFFSET  -2.273050   0.000000   0.000000
                                        }
                                    }
                                }
                            }
                            JOINT RightFinger2
                            {
                                OFFSET  -8.364480   0.000000   1.078090
                                CHANNELS 3 Zrotation Xrotation Yrotation
                                JOINT RightFinger21
                                {
                                    OFFSET  -5.111620   0.000000   0.000000
                                    CHANNELS 3 Zrotation Xrotation Yrotation
                                    JOINT RightFinger22
                                    {
                                        OFFSET  -2.788160   0.000000   0.000000
                                        CHANNELS 3 Zrotation Xrotation Yrotation
                                        End Site
                                        {
                                            OFFSET  -2.727660   0.000000   0.000000
                                        }
                                    }
                                }
                            }
                            JOINT RightFinger3
                            {
                                OFFSET  -7.899780   0.000000  -1.078090
                                CHANNELS 3 Zrotation Xrotation Yrotation
                                JOINT RightFinger31
                                {
                                    OFFSET  -4.646930   0.000000   0.000000
                                    CHANNELS 3 Zrotation Xrotation Yrotation
                                    JOINT RightFinger32
                                    {
                                        OFFSET  -2.323470   0.000000   0.000000
                                        CHANNELS 3 Zrotation Xrotation Yrotation
                                        End Site
                                        {
                                            OFFSET  -2.273050   0.000000   0.000000
                                        }
                                    }
                                }
                            }
                            JOINT RightFinger4
                            {
                                OFFSET  -7.435090   0.000000  -3.252850
                                CHANNELS 3 Zrotation Xrotation Yrotation
                                JOINT RightFinger41
                                {
                                    OFFSET  -3.717550   0.000000   0.000000
                                    CHANNELS 3 Zrotation Xrotation Yrotation
                                    JOINT RightFinger42
                                    {
                                        OFFSET  -1.858770   0.000000   0.000000
                                        CHANNELS 3 Zrotation Xrotation Yrotation
                                        End Site
                                        {
                                            OFFSET  -1.818440   0.000000   0.000000
                                        }
                                    }
                                }
                            }
                        }
                    }
                }
            }
        }
    }
    JOINT LeftHip
    {
        OFFSET   9.783040   0.000000   0.000000
        CHANNELS 3 Zrotation Xrotation Yrotation
        JOINT LeftKnee
        {
            OFFSET   0.000032 -41.789100  -0.002222
            CHANNELS 3 Zrotation Xrotation Yrotation
            JOINT LeftAnkle
            {
                OFFSET   0.000087 -41.133200  -0.000135
                CHANNELS 3 Zrotation Xrotation Yrotation
                JOINT LeftToe
                {
                    OFFSET   0.000000  -6.358960  14.674500
                    CHANNELS 3 Zrotation Xrotation Yrotation
                    End Site
                    {
                        OFFSET   0.000000   0.000000   3.913200
                    }
                }
            }
        }
    }
    JOINT RightHip
    {
        OFFSET  -9.783040   0.000000   0.000000
        CHANNELS 3 Zrotation Xrotation Yrotation
        JOINT RightKnee
        {
            OFFSET   0.000047 -41.789100  -0.000896
            CHANNELS 3 Zrotation Xrotation Yrotation
            JOINT RightAnkle
            {
                OFFSET  -0.000117 -41.133300  -0.000248
                CHANNELS 3 Zrotation Xrotation Yrotation
                JOINT RightToe
                {
                    OFFSET   0.000000  -6.358970  14.674500
                    CHANNELS 3 Zrotation Xrotation Yrotation
                    End Site
                    {
                        OFFSET   0.000000   0.000000   3.913200
                    }
                }
            }
        }
    }
}
MOTION
Frames: 4
Frame Time:   0.016667
 -0.254345  89.493800   2.990740  -2.549600  -2.144140  -0.277409   0.933150   1.723440  -0.533634   1.883610   3.437890  -1.096040   1.265950   0.999124  -0.030674   2.081430   2.023290   4.026920  -3.262850   2.943050   0.037306 -73.511700  12.700900  -4.285530  -2.823430  -4.698880  -9.118910   8.454810  -7.149870  13.668200  39.493000  25.430200 -62.668400 -22.626500   0.006401   0.002701  -6.313250  -0.001705   0.001656 -34.874100   7.965430 -11.245800 -29.176000   0.000367   0.008938 -20.423200  -0.002435   0.005042 -28.547500   3.989850  -7.289060 -42.870300   0.003797  -0.004353 -28.551700   0.006528  -0.006411 -29.397700   1.505740  -2.670300 -44.149200  -0.000334   0.001217 -29.403300   0.002660  -0.006056 -40.542700  -1.234820   1.443170 -60.837300  -0.001641  -0.016791 -40.517600   0.000102  -0.004080   5.169900  -0.027599   7.400460  73.353300   3.709350  -2.386030   1.919670  -5.633230   5.562090 -12.997300  -8.559220   1.751570 -36.359800  26.652800  67.156800  26.738900  -0.000139  -0.004821   8.357210   0.002683   0.000240  37.856900   7.906180  10.037900  31.543000  -0.000567  -0.004375  22.080100  -0.006286  -0.001061  29.053400   4.987280   8.896030  44.162600  -0.003318  -0.002551  29.412300  -0.003444  -0.001489  31.151700   1.244880   2.044490  46.760900  -0.000651   0.014465  31.142800   0.001718   0.008900  44.341200  -2.438700  -2.490550  66.577000  -0.004415  -0.008187  44.349500  -0.005845  -0.003169   2.970820   4.705500   0.242172   1.574920   0.432607   9.195100  -3.222180  -2.405660   1.442740  -0.000000   0.000000   0.000000   2.844910  -1.145890  -3.555600   0.311918   5.832070  -6.166750  -4.493580  -2.462810   1.814150   0.000000   0.000000   0.000000
 -0.277260  89.493800   3.004260  -2.549860  -2.144140  -0.284886   0.932018   1.723470  -0.533620   1.881330   3.437970  -1.095990   1.274860   1.005150  -0.030642   2.096150   2.035490   3.986410  -3.264570   2.942750   0.037330 -73.508600  12.700500  -4.299460  -2.825630  -4.709590  -9.125820   8.456920  -7.167020  13.655100  39.491000  25.428600 -62.693600 -22.615000   0.006400   0.002701  -6.307520  -0.001699   0.001636 -34.890600   7.979480 -11.259300 -29.191500   0.000367   0.008941 -20.434100  -0.002422   0.005046 -28.545300   3.998700  -7.305350 -42.907400   0.003798  -0.004354 -28.576400   0.006532  -0.006416 -29.410000   1.511510  -2.679830 -44.168000  -0.000335   0.001230 -29.415900   0.002669  -0.006050 -40.557200  -1.239300   1.447640 -60.859200  -0.001641  -0.016801 -40.532200   0.000072  -0.004071   5.173410  -0.028915   7.400320  73.353800   3.730040  -2.386400   1.919600  -5.632840   5.561760 -12.998600  -8.559980   1.726940 -36.364900  26.643700  67.142900  26.731400  -0.000139  -0.004803   8.356920   0.002678   0.000238  37.849500   7.903770  10.036500  31.536600  -0.000567  -0.004372  22.075600  -0.006284  -0.001061  29.046100   4.987250   8.897510  44.151700  -0.003314  -0.002546  29.405100  -0.003443  -0.001486  31.151700   1.242870   2.046210  46.760900  -0.000648   0.014463  31.142800   0.001719   0.008899  44.341200  -2.438810  -2.490630  66.584000  -0.004412  -0.008184  44.349500  -0.005843  -0.003168   2.984190   4.716980   0.242181   1.574480   0.428541   9.205540  -3.229290  -2.411920   1.431690   0.000000   0.000000   0.000000   2.854650  -1.119410  -3.542860   0.322214   5.800740  -6.194800  -4.518150  -2.463280   1.836280  -0.000000   0.000000   0.000000
 -0.314564  89.493800   3.026990  -2.550320  -2.144140  -0.297482   0.929991   1.723510  -0.533516   1.877280   3.438050  -1.095700   1.288160   1.020110  -0.030611   2.118130   2.065700   3.925070  -3.268910   2.942440   0.037353 -73.503700  12.699900  -4.321790  -2.828330  -4.720230  -9.138690   8.458980  -7.188220  13.634400  39.493000  25.434000 -62.736400 -22.595700   0.006398   0.002701  -6.297870  -0.001683   0.001596 -34.915600   7.998860 -11.274400 -29.214400   0.000366   0.008950 -20.450100  -0.002389   0.005057 -28.543200   4.007560  -7.321640 -42.961000   0.003801  -0.004356 -28.612000   0.006542  -0.006430 -29.429600   1.518640  -2.689600 -44.197900  -0.000335   0.001264 -29.435800   0.002693  -0.006035 -40.579800  -1.245890   1.454210 -60.893400  -0.001641  -0.016828 -40.555000   0.000000  -0.004045   5.180460  -0.032952   7.400180  73.352700   3.758960  -2.388700   1.919350  -5.632470   5.559530 -12.998700  -8.563090   1.690250 -36.370800  26.633200  67.125100  26.723900  -0.000142  -0.004785   8.356640   0.002673   0.000237  37.839100   7.898700  10.032600  31.527400  -0.000564  -0.004366  22.069200  -0.006280  -0.001061  29.034300   4.987210   8.900360  44.134000  -0.003304  -0.002534  29.393300  -0.003438  -0.001480  31.151800   1.238540   2.047930  46.760900  -0.000639   0.014458  31.142800   0.001724   0.008894  44.341200  -2.438960  -2.490770  66.590900  -0.004406  -0.008176  44.349500  -0.005837  -0.003166   3.006870   4.728460   0.242191   1.573380   0.424467   9.223140  -3.242640  -2.426010   1.418740  -0.000000   0.000000  -0.000000   2.869400  -1.075840  -3.529540   0.338405   5.746630  -6.236980  -4.556070  -2.463730   1.872830   0.000000   0.000000   0.000000
 -0.342728  89.493900   3.045710  -2.550720  -2.141280  -0.308135   0.927750   1.719630  -0.531583   1.872680   3.430360  -1.091680   1.295450   1.042870  -0.030639   2.130110   2.111600   3.889410  -3.275610   2.943870   0.030303 -73.504200  12.700200  -4.336930  -2.828840  -4.714810  -9.152380   8.460420  -7.193120  13.619500  39.511200  25.463900 -62.781400 -22.575900   0.006394   0.002708  -6.287960  -0.001659   0.001553 -34.931900   8.005910 -11.276300 -29.228300   0.000358   0.008962 -20.459800  -0.002337   0.005077 -28.543200   4.007300  -7.321150 -42.986400   0.003806  -0.004359 -28.628900   0.006558  -0.006450 -29.445900   1.520220  -2.689890 -44.222000  -0.000335   0.001315 -29.451800   0.002730  -0.006010 -40.598100  -1.249840   1.458150 -60.921000  -0.001639  -0.016870 -40.573400  -0.000138  -0.004006   5.188470  -0.040390   7.400210  73.347700   3.768890  -2.395640   1.918040  -5.634660   5.551960 -12.994200  -8.571700   1.670990 -36.371200  26.632700  67.119300  26.724000  -0.000151  -0.004793   8.358180   0.002684   0.000249  37.835600   7.892630  10.026200  31.523700  -0.000555  -0.004357  22.066600  -0.006273  -0.001060  29.025400   4.987160   8.903500  44.120900  -0.003289  -0.002514  29.384600  -0.003429  -0.001470  31.148000   1.231270   2.038290  46.754800  -0.000623   0.014452  31.138700   0.001733   0.008884  44.337500  -2.439030  -2.490960  66.585400  -0.004397  -0.008162  44.345800  -0.005827  -0.003162   3.026110   4.725330   0.242065   1.568620   0.447839   9.238380  -3.257610  -2.447210   1.416780  -0.000000   0.000000   0.000000   2.878240  -1.041780  -3.528840   0.349279   5.697990  -6.261780  -4.580260  -2.460480   1.902790   0.000000   0.000000  -0.000000
